<svg width="24" height="24" viewBox="0 0 24 24" fill="none" xmlns="http://www.w3.org/2000/svg">
<path fill-rule="evenodd" clip-rule="evenodd" d="M4.42509 14.1355C4.16496 14.7603 4.01964 15.427 3.99609 16.1035C4.03199 16.5206 4.17427 16.9217 4.40934 17.2682C4.85167 17.7803 5.38361 18.2075 5.97909 18.529L9.82509 21.0895C10.2983 21.4661 10.8305 21.7621 11.4001 21.9655C11.7699 22.0535 12.1553 22.0535 12.5251 21.9655C13.0985 21.7645 13.6349 21.4706 14.1128 21.0955L18.0001 18.5335C18.6017 18.2111 19.1396 17.7821 19.5878 17.2675C19.8246 16.919 19.9667 16.5151 20.0003 16.0952C19.9748 15.4132 19.8256 14.7416 19.5601 14.113L16.1603 3.41345C16.0845 3.06694 15.9473 2.73675 15.7553 2.43845C15.6155 2.26857 15.4349 2.13696 15.2303 2.05595C14.8886 1.96329 14.533 1.9323 14.1803 1.96445H9.75384C9.40105 1.93238 9.04537 1.96414 8.70384 2.0582C8.4988 2.13905 8.31801 2.27129 8.17884 2.4422C7.98773 2.74052 7.85181 3.07078 7.77759 3.4172L4.42509 14.1362V14.1355ZM14.3551 4.23545C14.5132 4.48685 14.6252 4.76445 14.6858 5.0552L17.6048 14.6432C16.5085 14.0745 15.3316 13.6767 14.1151 13.4635L12.2183 7.04345C12.2067 7.00553 12.1861 6.97096 12.1583 6.94263C12.1306 6.9143 12.0964 6.89304 12.0587 6.88062C12.0211 6.86821 11.9809 6.86501 11.9418 6.87129C11.9026 6.87756 11.8655 6.89314 11.8336 6.9167C11.7908 6.94804 11.7594 6.99257 11.7443 7.04345L9.86934 13.4612C8.64706 13.674 7.46475 14.0734 6.36384 14.6455L9.29484 5.05745C9.35485 4.76617 9.46717 4.48817 9.62634 4.23695C9.74243 4.09448 9.89255 3.98356 10.0628 3.91445C10.3497 3.8369 10.6482 3.8115 10.9441 3.83945H13.0388C13.335 3.81148 13.6337 3.83688 13.9208 3.91445C14.0916 3.98376 14.2421 4.09523 14.3581 4.23845L14.3551 4.23545ZM12.0953 15.7952C12.998 15.8475 13.8931 15.6045 14.6453 15.103C14.7309 15.3721 14.7612 15.6558 14.7345 15.937C14.7078 16.2182 14.6247 16.4911 14.4901 16.7395C14.2134 17.2098 13.8118 17.5942 13.3298 17.8502C12.8243 18.1712 12.3893 18.4502 12.3893 19.1905C12.3887 19.4279 12.4423 19.6624 12.5461 19.8759C12.2052 19.7344 11.9139 19.495 11.709 19.1879C11.5041 18.8809 11.3948 18.5201 11.3948 18.151V18.1052C11.3948 17.593 11.3948 16.9622 10.6733 16.9622C10.5728 16.9621 10.4731 16.9818 10.3801 17.02C10.1928 17.0975 10.044 17.2461 9.96609 17.4332C9.92742 17.5262 9.90729 17.6258 9.90684 17.7265C9.41232 17.1864 9.14667 16.4755 9.16584 15.7435C9.16234 15.4266 9.20659 15.1111 9.29709 14.8075C9.59709 15.3752 10.7371 15.7975 12.0953 15.7975V15.7952Z" fill="#FF5D01"/>
</svg>
