<svg width="32" height="32" viewBox="0 0 32 32" fill="none" xmlns="http://www.w3.org/2000/svg">
<path d="M21.1173 22.1474L21.2607 21.6524C21.4315 21.0632 21.3679 20.5192 21.0816 20.1191C20.8183 19.7509 20.3791 19.5338 19.8463 19.5087L9.74915 19.3809C9.7179 19.3803 9.68724 19.3723 9.65962 19.3577C9.632 19.3431 9.6082 19.3222 9.59013 19.2967C9.57254 19.2702 9.56136 19.2399 9.55749 19.2083C9.55361 19.1768 9.55715 19.1447 9.56781 19.1148C9.58512 19.0653 9.61653 19.022 9.65818 18.9901C9.69982 18.9583 9.74988 18.9394 9.80216 18.9357L19.9925 18.8062C21.201 18.751 22.51 17.7706 22.9681 16.5754L23.549 15.0583C23.5728 14.9941 23.5782 14.9245 23.5646 14.8574C22.9051 11.8918 20.2558 9.67383 17.0888 9.67383C14.1705 9.67383 11.6931 11.5559 10.8043 14.1717C10.2037 13.7213 9.4552 13.5143 8.70853 13.5919C8.28197 13.6363 7.86996 13.772 7.5005 13.9898C7.13103 14.2076 6.81276 14.5023 6.56731 14.854C6.32187 15.2057 6.15498 15.6061 6.07801 16.028C6.00103 16.4499 6.01576 16.8834 6.1212 17.2991C3.83406 17.3661 2 19.2381 2 21.5397C2 21.7451 2.01562 21.9498 2.04575 22.1535C2.05231 22.2004 2.07554 22.2435 2.11119 22.2747C2.14683 22.3059 2.19253 22.3233 2.23993 22.3237L20.8808 22.3259H20.8858C20.9384 22.3249 20.9893 22.307 21.031 22.2749C21.0727 22.2427 21.103 22.198 21.1173 22.1474Z" fill="#F6821F"/>
<path d="M24.4809 15.1685C24.3877 15.1685 24.2945 15.1707 24.2019 15.1757C24.1868 15.1767 24.172 15.1799 24.1578 15.1852C24.1335 15.1935 24.1116 15.2076 24.0939 15.2263C24.0762 15.2449 24.0633 15.2676 24.0563 15.2923L23.659 16.6627C23.4888 17.2514 23.5519 17.7954 23.8387 18.1949C24.1015 18.5637 24.5406 18.7808 25.0735 18.8053L27.2261 18.9348C27.2564 18.9358 27.286 18.9439 27.3126 18.9583C27.3393 18.9727 27.3622 18.9931 27.3796 19.0179C27.3975 19.0445 27.4089 19.0749 27.4129 19.1067C27.4169 19.1385 27.4133 19.1708 27.4025 19.2009C27.3849 19.2502 27.3534 19.2933 27.3118 19.325C27.2702 19.3567 27.2203 19.3756 27.1681 19.3795L24.9317 19.5089C23.7176 19.5647 22.4091 20.5445 21.951 21.7397L21.7892 22.1616C21.7789 22.1882 21.7786 22.2177 21.7883 22.2446C21.7981 22.2715 21.8172 22.2939 21.8422 22.3077C21.859 22.3172 21.8768 22.3228 21.8958 22.3234H29.597C29.6417 22.3239 29.6854 22.3097 29.7213 22.283C29.7571 22.2563 29.7833 22.2185 29.7956 22.1755C29.9322 21.6894 30.0011 21.1868 30.0004 20.6818C29.9998 17.6369 27.5291 15.169 24.4815 15.169L24.4809 15.1685Z" fill="#FBAD41"/>
</svg>
