<svg width="24" height="24" viewBox="0 0 24 24" fill="none" xmlns="http://www.w3.org/2000/svg">
<path fill-rule="evenodd" clip-rule="evenodd" d="M12 12C12 10.136 13.511 8.625 15.375 8.625C17.239 8.625 18.75 10.136 18.75 12C18.75 13.864 17.239 15.375 15.375 15.375C13.511 15.375 12 13.864 12 12Z" fill="#1ABCFE"/>
<path fill-rule="evenodd" clip-rule="evenodd" d="M5.25 18.75C5.25 16.886 6.76104 15.375 8.625 15.375H12V18.75C12 20.614 10.489 22.125 8.625 22.125C6.76104 22.125 5.25 20.614 5.25 18.75Z" fill="#0ACF83"/>
<path fill-rule="evenodd" clip-rule="evenodd" d="M12 1.875V8.625H15.375C17.239 8.625 18.75 7.11396 18.75 5.25C18.75 3.38604 17.239 1.875 15.375 1.875H12Z" fill="#FF7262"/>
<path fill-rule="evenodd" clip-rule="evenodd" d="M5.25 5.25C5.25 7.11396 6.76104 8.625 8.625 8.625H12V1.875H8.625C6.76104 1.875 5.25 3.38604 5.25 5.25Z" fill="#F24E1E"/>
<path fill-rule="evenodd" clip-rule="evenodd" d="M5.25 12C5.25 13.864 6.76104 15.375 8.625 15.375H12V8.625H8.625C6.76104 8.625 5.25 10.136 5.25 12Z" fill="#A259FF"/>
</svg>
