<svg width="32" height="33" viewBox="0 0 32 33" fill="none" xmlns="http://www.w3.org/2000/svg">
	<path d="M0.000105881 18.8305L0.0798327 6.83117C0.0942651 4.65907 1.61279 2.79829 3.71022 2.38255L15.297 0.0858829C18.0814 -0.466024 20.6652 1.71262 20.6461 4.59615L20.5663 16.5954C20.5519 18.7675 19.0334 20.6283 16.936 21.0441L5.34916 23.3407C2.56476 23.8926 -0.0190529 21.714 0.000105881 18.8305Z" class="fill-gray-900/20 dark:fill-white/20" />
	<path d="M5.67706 23.6172L5.75678 11.6179C5.77122 9.4458 7.28974 7.58502 9.38717 7.16928L20.974 4.87261C23.7584 4.32071 26.3422 6.49935 26.323 9.38288L26.2433 21.3822C26.2289 23.5543 24.7103 25.4151 22.6129 25.8308L11.0261 28.1275C8.24171 28.6794 5.6579 26.5007 5.67706 23.6172Z" class="fill-gray-900/50 dark:fill-white/50" />
	<path d="M11.3539 28.4039L11.4337 16.4046C11.4481 14.2324 12.9666 12.3717 15.064 11.9559L26.6508 9.65927C29.4352 9.10736 32.0191 11.286 31.9999 14.1695L31.9202 26.1688C31.9057 28.3409 30.3872 30.2017 28.2898 30.6175L16.703 32.9141C13.9186 33.466 11.3348 31.2874 11.3539 28.4039Z" class="fill-gray-900/80 dark:fill-white/80" />
</svg>
