<svg width="25" height="24" viewBox="0 0 25 24" fill="none" xmlns="http://www.w3.org/2000/svg">
<g clip-path="url(#clip0_1117_3292)">
<path d="M17.8189 8.48071L17.8105 8.47711C17.8057 8.47531 17.8009 8.47351 17.7967 8.46931C17.7898 8.46192 17.7847 8.45304 17.7818 8.44336C17.7789 8.43369 17.7782 8.42348 17.7799 8.41351L18.2437 5.57791L20.4187 7.75351L18.1567 8.71591C18.1504 8.71845 18.1436 8.71967 18.1369 8.71951H18.1279C18.1249 8.71771 18.1219 8.71531 18.1159 8.70931C18.0317 8.61558 17.931 8.5381 17.8189 8.48071ZM20.9737 8.30791L23.2993 10.6335C23.7823 11.1171 24.0241 11.3583 24.1123 11.6379C24.1255 11.6793 24.1363 11.7207 24.1447 11.7633L18.5869 9.40951C18.5839 9.40828 18.5809 9.40708 18.5779 9.40591C18.5557 9.39691 18.5299 9.38671 18.5299 9.36391C18.5299 9.34111 18.5563 9.33031 18.5785 9.32131L18.5857 9.31831L20.9737 8.30791ZM24.0499 12.5097C23.9299 12.7353 23.6959 12.9693 23.2999 13.3659L20.6779 15.9873L17.2867 15.2811L17.2687 15.2775C17.2387 15.2727 17.2069 15.2673 17.2069 15.2403C17.194 15.1004 17.1524 14.9647 17.0848 14.8415C17.0172 14.7184 16.925 14.6105 16.8139 14.5245C16.8001 14.5107 16.8037 14.4891 16.8079 14.4693C16.8079 14.4663 16.8079 14.4633 16.8091 14.4609L17.4469 10.5453L17.4493 10.5321C17.4529 10.5021 17.4583 10.4673 17.4853 10.4673C17.6219 10.4503 17.7539 10.4063 17.8734 10.3378C17.9929 10.2693 18.0975 10.1777 18.1813 10.0683C18.1867 10.0623 18.1903 10.0557 18.1975 10.0521C18.2167 10.0431 18.2395 10.0521 18.2593 10.0605L24.0493 12.5097H24.0499ZM20.0749 16.5903L15.7633 20.9019L16.5013 16.3659L16.5025 16.3599C16.5031 16.3539 16.5043 16.3479 16.5061 16.3425C16.5121 16.3281 16.5277 16.3221 16.5427 16.3161L16.5499 16.3131C16.7115 16.2442 16.8544 16.1379 16.9669 16.0029C16.9813 15.9861 16.9987 15.9699 17.0209 15.9669C17.0266 15.966 17.0325 15.966 17.0383 15.9669L20.0743 16.5909L20.0749 16.5903ZM14.8507 21.8145L14.3647 22.3005L8.99166 14.5353C8.98972 14.5325 8.98772 14.5297 8.98566 14.5269C8.97726 14.5155 8.96826 14.5041 8.97006 14.4909C8.97066 14.4813 8.97666 14.4729 8.98326 14.4657L8.98926 14.4579C9.00546 14.4339 9.01926 14.4099 9.03426 14.3841L9.04626 14.3631L9.04806 14.3613C9.05646 14.3469 9.06426 14.3331 9.07866 14.3253C9.09126 14.3193 9.10866 14.3217 9.12246 14.3247L15.0751 15.5523C15.0917 15.5549 15.1074 15.5617 15.1207 15.5721C15.1285 15.5799 15.1303 15.5883 15.1321 15.5979C15.1736 15.755 15.2509 15.9004 15.3579 16.0227C15.4649 16.145 15.5987 16.2409 15.7489 16.3029C15.7657 16.3113 15.7585 16.3299 15.7507 16.3497C15.7468 16.3584 15.7438 16.3674 15.7417 16.3767C15.6667 16.8327 15.0235 20.7555 14.8507 21.8145ZM13.8355 22.8291C13.4773 23.1837 13.2661 23.3715 13.0273 23.4471C12.7918 23.5216 12.5391 23.5216 12.3037 23.4471C12.0241 23.3583 11.7823 23.1171 11.2993 22.6335L5.90346 17.2377L7.31286 15.0519C7.31946 15.0411 7.32606 15.0315 7.33686 15.0237C7.35186 15.0129 7.37346 15.0177 7.39146 15.0237C7.71496 15.1213 8.06229 15.1037 8.37426 14.9739C8.39046 14.9679 8.40666 14.9637 8.41926 14.9751C8.42556 14.9809 8.4312 14.9873 8.43606 14.9943L13.8355 22.8297V22.8291ZM5.38326 16.7175L4.14546 15.4797L6.58986 14.4369C6.59611 14.4342 6.60285 14.4328 6.60966 14.4327C6.63006 14.4327 6.64206 14.4531 6.65286 14.4717C6.67743 14.5095 6.70345 14.5463 6.73086 14.5821L6.73866 14.5917C6.74586 14.6019 6.74106 14.6121 6.73386 14.6217L5.38386 16.7175H5.38326ZM3.59766 14.9319L2.03166 13.3659C1.76526 13.0995 1.57206 12.9063 1.43766 12.7401L6.19926 13.7277C6.20524 13.7288 6.21124 13.7298 6.21726 13.7307C6.24666 13.7355 6.27906 13.7409 6.27906 13.7685C6.27906 13.7985 6.24366 13.8123 6.21366 13.8237L6.19986 13.8297L3.59766 14.9319ZM1.16406 11.9349C1.16949 11.834 1.18763 11.7342 1.21806 11.6379C1.30686 11.3583 1.54806 11.1171 2.03166 10.6335L4.03566 8.62951C4.95836 9.96864 5.88356 11.306 6.81126 12.6417C6.82746 12.6633 6.84546 12.6873 6.82686 12.7053C6.73926 12.8019 6.65166 12.9075 6.58986 13.0221C6.58316 13.0368 6.57284 13.0496 6.55986 13.0593C6.55206 13.0641 6.54366 13.0623 6.53466 13.0605H6.53346L1.16406 11.9343V11.9349ZM4.57206 8.09311L7.26666 5.39851C7.51986 5.50951 8.44146 5.89891 9.26586 6.24691C9.88986 6.51091 10.4587 6.75091 10.6375 6.82891C10.6555 6.83611 10.6717 6.84331 10.6795 6.86131C10.6843 6.87211 10.6819 6.88591 10.6795 6.89731C10.6368 7.09182 10.6432 7.29387 10.6979 7.48532C10.7527 7.67676 10.8542 7.8516 10.9933 7.99411C11.0113 8.01211 10.9933 8.03791 10.9777 8.06011L10.9693 8.07271L8.23326 12.3105C8.22606 12.3225 8.21946 12.3327 8.20746 12.3405C8.19306 12.3495 8.17266 12.3453 8.15586 12.3411C8.04945 12.3132 7.94005 12.2983 7.83006 12.2967C7.73166 12.2967 7.62486 12.3147 7.51686 12.3345H7.51626C7.50426 12.3363 7.49346 12.3387 7.48386 12.3315C7.47326 12.3228 7.46414 12.3125 7.45686 12.3009L4.57206 8.09311ZM7.81086 4.85431L11.2993 1.36591C11.7823 0.882911 12.0241 0.641111 12.3037 0.552911C12.5391 0.478457 12.7918 0.478457 13.0273 0.552911C13.3069 0.641111 13.5487 0.882911 14.0317 1.36591L14.7877 2.12191L12.3067 5.96431C12.3005 5.9755 12.2922 5.9853 12.2821 5.99311C12.2671 6.00331 12.2461 5.99911 12.2281 5.99311C12.0325 5.93375 11.8253 5.92294 11.6246 5.96162C11.4239 6.0003 11.2356 6.08731 11.0761 6.21511C11.0599 6.23191 11.0359 6.22231 11.0155 6.21331C10.6915 6.07231 8.17146 5.00731 7.81086 4.85431ZM15.3145 2.64871L17.6053 4.93951L17.0533 8.35831V8.36731C17.0528 8.3751 17.0512 8.38278 17.0485 8.39011C17.0425 8.40211 17.0305 8.40451 17.0185 8.40811C16.9004 8.44386 16.7893 8.49923 16.6897 8.57191C16.6854 8.57496 16.6814 8.57837 16.6777 8.58211C16.6711 8.58931 16.6645 8.59591 16.6537 8.59711C16.6449 8.59738 16.6361 8.59596 16.6279 8.59291L13.1371 7.10971L13.1305 7.10671C13.1083 7.09771 13.0819 7.08691 13.0819 7.06411C13.0613 6.86958 12.9978 6.68205 12.8959 6.51511C12.8791 6.48751 12.8605 6.45871 12.8749 6.43051L15.3145 2.64871ZM12.9553 7.81231L16.2277 9.19831C16.2457 9.20671 16.2655 9.21451 16.2733 9.23311C16.2764 9.2443 16.2764 9.25612 16.2733 9.26731C16.2637 9.31531 16.2553 9.36991 16.2553 9.42511V9.51691C16.2553 9.53971 16.2319 9.54931 16.2103 9.55831L16.2037 9.56071C15.6853 9.78211 8.92566 12.6645 8.91546 12.6645C8.90526 12.6645 8.89446 12.6645 8.88426 12.6543C8.86626 12.6363 8.88426 12.6111 8.90046 12.5883C8.90333 12.5844 8.90613 12.5804 8.90886 12.5763L11.5981 8.41231L11.6029 8.40511C11.6185 8.37991 11.6365 8.35171 11.6653 8.35171L11.6923 8.35591C11.7535 8.36431 11.8075 8.37211 11.8621 8.37211C12.2701 8.37211 12.6481 8.17351 12.8761 7.83391C12.8815 7.82484 12.8884 7.81673 12.8965 7.80991C12.9127 7.79791 12.9367 7.80391 12.9553 7.81231ZM9.20766 13.3233L16.5757 10.1811C16.5757 10.1811 16.5865 10.1811 16.5967 10.1913C16.6369 10.2315 16.6711 10.2585 16.7041 10.2837L16.7203 10.2939C16.7353 10.3023 16.7503 10.3119 16.7515 10.3275C16.7515 10.3335 16.7515 10.3371 16.7503 10.3425L16.1191 14.2197L16.1167 14.2353C16.1125 14.2653 16.1083 14.2995 16.0801 14.2995C15.9118 14.3109 15.7488 14.3631 15.6053 14.4516C15.4617 14.5402 15.3419 14.6624 15.2563 14.8077L15.2533 14.8125C15.2449 14.8263 15.2371 14.8395 15.2233 14.8467C15.2107 14.8527 15.1945 14.8503 15.1813 14.8473L9.30546 13.6353C9.29946 13.6341 9.21426 13.3239 9.20766 13.3233Z" fill="url(#paint0_radial_1117_3292)"/>
</g>
<defs>
<radialGradient id="paint0_radial_1117_3292" cx="0" cy="0" r="1" gradientUnits="userSpaceOnUse" gradientTransform="translate(0.392505 11.6754) rotate(90) scale(22.9806 26.5319)">
<stop stop-color="#20C6B7"/>
<stop offset="1" stop-color="#4D9ABF"/>
</radialGradient>
<clipPath id="clip0_1117_3292">
<rect width="24" height="24" fill="white" transform="translate(0.666016)"/>
</clipPath>
</defs>
</svg>
