<svg width="24" height="24" viewBox="0 0 24 24" fill="none" xmlns="http://www.w3.org/2000/svg">
<g clip-path="url(#clip0_1117_2924)">
<path fill-rule="evenodd" clip-rule="evenodd" d="M4.287 21.9133L1.70748 18.6999C1.08685 17.9267 0.75 16.976 0.75 15.9974V4.36124C0.75 2.89548 1.92269 1.67923 3.43553 1.57594L15.3991 0.759137C16.2682 0.699797 17.1321 0.930818 17.8461 1.41353L22.0494 4.25543C22.8018 4.76414 23.25 5.59574 23.25 6.48319V19.7124C23.25 21.1468 22.0969 22.3345 20.6157 22.4256L7.3375 23.243C6.1555 23.3158 5.01299 22.8178 4.287 21.9133Z" fill="white"/>
<path d="M8.43704 10.1842V10.0318C8.43704 9.64564 8.74633 9.32537 9.14494 9.29876L12.0484 9.10491L16.0638 15.0178V9.82823L15.0302 9.69046V9.6181C15.0302 9.22739 15.3466 8.90501 15.7503 8.88433L18.3922 8.74899V9.12918C18.3922 9.30765 18.2594 9.46031 18.0775 9.49108L17.4418 9.59861V18.0029L16.6439 18.2773C15.9773 18.5065 15.2353 18.2611 14.8537 17.6853L10.9555 11.803V17.4173L12.1554 17.647L12.1386 17.7583C12.0863 18.1069 11.7853 18.3705 11.4212 18.3867L8.43704 18.5195C8.3976 18.1447 8.67856 17.8093 9.06615 17.7686L9.45869 17.7273V10.2416L8.43704 10.1842Z" fill="black"/>
<path fill-rule="evenodd" clip-rule="evenodd" d="M15.5071 2.22521L3.54358 3.04201C2.82697 3.09094 2.27148 3.66706 2.27148 4.36136V15.9975C2.27148 16.6499 2.49605 17.2837 2.9098 17.7992L5.48932 21.0126C5.90638 21.5322 6.56272 21.8183 7.24174 21.7765L20.52 20.9591C21.2005 20.9172 21.7303 20.3716 21.7303 19.7125V6.48332C21.7303 6.07557 21.5244 5.69348 21.1787 5.45975L16.9753 2.61784C16.5469 2.32822 16.0286 2.1896 15.5071 2.22521ZM4.13683 4.54287C3.97044 4.41968 4.04962 4.16303 4.25865 4.14804L15.5876 3.33545C15.9486 3.30956 16.3073 3.40896 16.5992 3.61578L18.8722 5.22622C18.9585 5.28736 18.9181 5.41935 18.8112 5.42516L6.81388 6.07764C6.4508 6.09739 6.09242 5.99073 5.80374 5.77699L4.13683 4.54287ZM6.25116 8.12315C6.25116 7.7334 6.56603 7.41145 6.96868 7.38952L19.6533 6.69871C20.0457 6.67734 20.376 6.97912 20.376 7.35898V18.8141C20.376 19.2031 20.0623 19.5247 19.6604 19.5476L7.05614 20.2648C6.61942 20.2896 6.25116 19.954 6.25116 19.5312V8.12315Z" fill="black"/>
</g>
<defs>
<clipPath id="clip0_1117_2924">
<rect width="24" height="24" fill="white"/>
</clipPath>
</defs>
</svg>
