<svg width="45" height="45" viewBox="0 0 45 45" fill="none" xmlns="http://www.w3.org/2000/svg">
	<path d="M44.9751 21.4396C45.1183 24.4804 44.6434 27.5186 43.5792 30.3703C42.515 33.2221 40.8836 35.8282 38.7837 38.0308C36.6838 40.2333 34.1592 41.9866 31.3625 43.1846C28.5658 44.3825 25.5553 45.0001 22.5132 45C21.2887 45.0012 20.0662 44.9013 18.8581 44.7013V34.3886H24.4848C31.1599 34.3886 36.6859 29.0742 36.804 22.5442V22.3288C36.8062 20.741 36.4958 19.1684 35.8904 17.7007C35.2849 16.233 34.3964 14.8991 33.2755 13.7753C32.1547 12.6514 30.8234 11.7596 29.358 11.1508C27.8925 10.542 26.3215 10.2282 24.7347 10.2273H13.3042C13.0947 10.2273 12.8872 10.2687 12.6937 10.349C12.5002 10.4293 12.3244 10.5471 12.1764 10.6955C12.0284 10.8439 11.9111 11.0201 11.8312 11.2139C11.7514 11.4077 11.7105 11.6154 11.711 11.8251V17.3826H24.6098C25.8731 17.3684 27.0951 17.8327 28.0305 18.6824C28.966 19.5322 29.5457 20.7045 29.6534 21.9641C29.6534 22.0857 29.6534 22.2072 29.6534 22.3114C29.6506 23.6144 29.131 24.8629 28.2086 25.7825C27.2863 26.7022 26.0368 27.2178 24.7347 27.2159H18.8338V22.5546H13.2799C12.8564 22.5546 12.4503 22.7229 12.1509 23.0226C11.8514 23.3222 11.6832 23.7286 11.6832 24.1524V42.2351C8.24208 40.3489 5.35409 37.5945 3.30614 34.2456C1.25819 30.8967 0.121576 27.0699 0.00922291 23.1453C-0.10313 19.2208 0.81269 15.3351 2.66569 11.8744C4.51869 8.41365 7.24437 5.49834 10.5719 3.41807C13.8995 1.3378 17.7131 0.164993 21.6338 0.0161731C25.5546 -0.132647 29.446 0.747696 32.9215 2.56974C36.397 4.39179 39.3355 7.09211 41.4452 10.4024C43.5549 13.7127 44.7622 17.5178 44.9473 21.4396H44.9751Z" fill="currentColor" />
</svg>