<svg width="24" height="24" viewBox="0 0 24 24" fill="none" xmlns="http://www.w3.org/2000/svg">
<g clip-path="url(#clip0_1117_3282)">
<path fill-rule="evenodd" clip-rule="evenodd" d="M6.57445 15.8305V18.2341L0.814453 12.4741L2.01582 11.2727L6.57445 15.8322V15.8305ZM8.97802 18.2341H6.57445L12.3345 23.9941L13.5358 22.7927L8.97802 18.2341ZM22.649 13.6771L23.8512 12.4741L12.3312 0.954102L11.1314 2.16041L15.6892 6.71739H12.9351L9.75397 3.54281L8.5526 4.74418L10.5316 6.72233H9.14917V15.6635H18.0895V14.2811L20.0685 16.2592L21.2699 15.0579L18.0895 11.8767V9.1226L22.6481 13.6771H22.649ZM7.17514 6.11835L5.96965 7.32137L7.25989 8.60996L8.46209 7.40859L7.17514 6.11835ZM17.4049 16.3481L16.2035 17.5511L17.4921 18.8414L18.6951 17.6384L17.4049 16.3481ZM4.5963 8.69719L3.39329 9.9002L6.57445 13.0814V10.6762L4.5963 8.69719ZM14.1382 18.239H11.7321L14.9133 21.4202L16.1163 20.2172L14.1382 18.239Z" fill="#FF6363"/>
</g>
<defs>
<clipPath id="clip0_1117_3282">
<rect width="23.04" height="24" fill="white" transform="translate(0.814453)"/>
</clipPath>
</defs>
</svg>
