<svg width="22" height="24" viewBox="0 0 22 24" fill="none" xmlns="http://www.w3.org/2000/svg">
	<path fill-rule="evenodd" clip-rule="evenodd" d="M7.35256 1.99058C7.17134 1.94202 6.98232 1.92963 6.79631 1.95411C6.61029 1.9786 6.43093 2.0395 6.26845 2.13331C6.10597 2.22713 5.96356 2.35203 5.84936 2.50089C5.73515 2.64974 5.65139 2.81964 5.60285 3.00087L1.90456 16.7997C1.80683 17.1656 1.85834 17.5552 2.04778 17.8831C2.23722 18.211 2.54909 18.4502 2.91485 18.5483L13.9548 21.5083C14.3208 21.606 14.7107 21.5543 15.0386 21.3646C15.3665 21.175 15.6056 20.8628 15.7034 20.4969L19.4017 6.69801C19.4994 6.33217 19.4479 5.94249 19.2585 5.61461C19.069 5.28673 18.7572 5.04748 18.3914 4.94944L7.35142 1.99058H7.35256ZM3.94685 2.55744C4.05361 2.15873 4.23787 1.78497 4.48909 1.45747C4.74032 1.12998 5.05359 0.855186 5.41102 0.648771C5.76845 0.442357 6.16304 0.30837 6.57225 0.254461C6.98147 0.200552 7.3973 0.227777 7.79599 0.334581L18.836 3.2923C19.2346 3.3993 19.6083 3.58377 19.9356 3.83518C20.2629 4.08658 20.5375 4.4 20.7437 4.75753C20.9499 5.11507 21.0837 5.50971 21.1373 5.91894C21.191 6.32817 21.1636 6.74396 21.0566 7.14258L17.3583 20.9414C17.2515 21.3401 17.0673 21.7139 16.816 22.0414C16.5648 22.3689 16.2515 22.6437 15.8941 22.8501C15.5367 23.0565 15.1421 23.1905 14.7329 23.2444C14.3237 23.2983 13.9078 23.2711 13.5091 23.1643L2.47142 20.2054C1.66641 19.9896 0.980111 19.4628 0.563469 18.7409C0.146827 18.0191 0.0339639 17.1613 0.249704 16.3563L3.94685 2.55744V2.55744Z" fill="currentColor" />
	<path fill-rule="evenodd" clip-rule="evenodd" d="M7.01972 5.45148C7.04889 5.34273 7.0992 5.2408 7.16777 5.1515C7.23635 5.0622 7.32184 4.98729 7.41938 4.93104C7.51691 4.87479 7.62457 4.83831 7.73621 4.82367C7.84784 4.80904 7.96127 4.81655 8.07 4.84576L16.3454 7.06291C16.565 7.12171 16.7523 7.26534 16.866 7.4622C16.9797 7.65906 17.0105 7.89302 16.9517 8.11262C16.8929 8.33222 16.7493 8.51947 16.5524 8.63317C16.3556 8.74687 16.1216 8.77771 15.902 8.71891L7.62543 6.50176C7.51669 6.47259 7.41475 6.42228 7.32545 6.35371C7.23615 6.28513 7.16124 6.19964 7.10499 6.10211C7.04874 6.00457 7.01226 5.89691 6.99763 5.78527C6.983 5.67364 6.9905 5.56021 7.01972 5.45148V5.45148ZM6.05858 9.04005C6.11726 8.82047 6.26074 8.63318 6.45749 8.51938C6.65423 8.40558 6.88812 8.37458 7.10772 8.43319L15.3843 10.6503C15.4931 10.6795 15.5951 10.7297 15.6845 10.7983C15.7739 10.8668 15.8489 10.9523 15.9052 11.0498C15.9616 11.1473 15.9982 11.255 16.0129 11.3667C16.0277 11.4783 16.0203 11.5918 15.9911 11.7006C15.962 11.8094 15.9118 11.9114 15.8432 12.0008C15.7747 12.0902 15.6892 12.1652 15.5917 12.2216C15.4942 12.2779 15.3865 12.3145 15.2748 12.3293C15.1631 12.344 15.0497 12.3366 14.9409 12.3075L6.66429 10.0892C6.55554 10.06 6.45361 10.0097 6.36431 9.94114C6.27501 9.87256 6.2001 9.78707 6.14385 9.68953C6.0876 9.592 6.05112 9.48434 6.03649 9.3727C6.02186 9.26107 6.02936 9.14764 6.05858 9.03891V9.04005ZM5.09743 12.6275C5.15636 12.4081 5.29995 12.2211 5.49667 12.1075C5.69338 11.994 5.92713 11.9631 6.14658 12.0218L11.6666 13.4995C11.7754 13.5286 11.8774 13.5789 11.9668 13.6474C12.0562 13.7159 12.1312 13.8014 12.1875 13.8989C12.2439 13.9965 12.2805 14.1041 12.2952 14.2158C12.3099 14.3275 12.3025 14.441 12.2734 14.5498C12.2443 14.6586 12.1941 14.7606 12.1255 14.85C12.057 14.9394 11.9715 15.0144 11.874 15.0707C11.7764 15.1271 11.6688 15.1637 11.5571 15.1784C11.4454 15.1931 11.332 15.1857 11.2231 15.1566L5.70315 13.6766C5.48378 13.6177 5.29677 13.4741 5.18319 13.2774C5.06962 13.0807 5.03878 12.8469 5.09743 12.6275Z" fill="currentColor" />
</svg>