<svg width="25" height="24" viewBox="0 0 25 24" fill="none" xmlns="http://www.w3.org/2000/svg">
<g clip-path="url(#clip0_1117_2938)">
<path d="M16.0857 2.33759C16.0857 1.67837 15.3476 1.67837 15.0195 1.76077C15.4788 1.3982 16.0173 1.4861 16.2087 1.59597L20.6437 3.7706C21.0663 3.97781 21.3343 4.40895 21.3343 4.88143V19.1873C21.3343 19.6661 21.0591 20.1019 20.628 20.3057L16.4547 22.279C16.1677 22.4026 15.5444 22.7075 15.0195 22.279C15.6756 22.4026 16.031 21.9357 16.0857 21.6198V2.33759Z" fill="url(#paint0_linear_1117_2938)"/>
<path d="M15.0724 1.74917C15.4206 1.68037 16.0853 1.71228 16.0853 2.33788V7.26215L2.63918 17.4342C2.40415 17.612 2.07339 17.5825 1.8732 17.3659L0.487384 15.8664C0.270283 15.6314 0.285473 15.2637 0.521202 15.0477L15.0192 1.76106L15.0724 1.74917Z" fill="url(#paint1_linear_1117_2938)"/>
<path d="M16.0853 16.7783L2.63918 6.60625C2.40415 6.42845 2.07339 6.45795 1.8732 6.67457L0.487384 8.17412C0.270283 8.40904 0.285473 8.77676 0.521202 8.99279L15.0192 22.2794C15.6753 22.403 16.0306 21.9361 16.0853 21.6202V16.7783Z" fill="url(#paint2_linear_1117_2938)"/>
</g>
<defs>
<linearGradient id="paint0_linear_1117_2938" x1="18.1769" y1="1.5" x2="18.1769" y2="22.5" gradientUnits="userSpaceOnUse">
<stop stop-color="#32B5F1"/>
<stop offset="1" stop-color="#2B9FED"/>
</linearGradient>
<linearGradient id="paint1_linear_1117_2938" x1="16.0853" y1="4.15073" x2="1.10026" y2="16.7291" gradientUnits="userSpaceOnUse">
<stop stop-color="#0F6FB3"/>
<stop offset="0.270551" stop-color="#1279B7"/>
<stop offset="0.421376" stop-color="#1176B5"/>
<stop offset="0.618197" stop-color="#0E69AC"/>
<stop offset="0.855344" stop-color="#0F70AF"/>
<stop offset="1" stop-color="#0F6DAD"/>
</linearGradient>
<linearGradient id="paint2_linear_1117_2938" x1="1.2004" y1="7.48816" x2="16.1433" y2="19.8609" gradientUnits="userSpaceOnUse">
<stop stop-color="#1791D2"/>
<stop offset="1" stop-color="#1173C5"/>
</linearGradient>
<clipPath id="clip0_1117_2938">
<rect width="24" height="24" fill="white" transform="translate(0.333984)"/>
</clipPath>
</defs>
</svg>
